<?xml version="1.0" encoding="UTF-8"?><svg id="Layer_1" xmlns="http://www.w3.org/2000/svg" viewBox="0 0 603.8 176.77"><defs><style>.cls-1{fill:#ff2a00;}.cls-2{fill:#0e2630;}</style></defs><g><path class="cls-2" d="M349.72,53.95h-31.04c-1.25,0-2.47,.42-3.46,1.2l-11.31,8.93v-10.13h-11.16V123.13h11.16v-44.84l16.71-13.19h23.53v58.03h11.16V59.53c0-3.08-2.5-5.58-5.58-5.58Z"/><rect class="cls-2" x="264.86" y="53.95" width="11.16" height="69.19"/><path class="cls-2" d="M508.29,53.95h-31.04c-1.25,0-2.47,.42-3.46,1.2l-11.31,8.93v-10.13h-11.16V123.13h11.16v-44.84l16.7-13.19h23.53v11.36h11.16v-16.94c0-3.08-2.5-5.58-5.58-5.58Z"/><path class="cls-2" d="M429.01,53.95h-51.39c-3.08,0-5.58,2.5-5.58,5.58v58.03c0,3.08,2.5,5.58,5.58,5.58h56.97v-11.16h-51.39v-17.85h45.81c3.08,0,5.58-2.5,5.58-5.58v-29.01c0-3.08-2.5-5.58-5.58-5.58Zm-5.58,29.01h-40.23v-17.85h40.23v17.85Z"/><path class="cls-2" d="M593.16,59.53c0-3.08-2.5-5.58-5.58-5.58h-51.39c-3.08,0-5.58,2.5-5.58,5.58v16.88h11.16v-11.3h40.23v17.85h-45.81c-3.08,0-5.58,2.5-5.58,5.58v29.01c0,3.08,2.5,5.58,5.58,5.58h29.96c1.26,0,2.48-.43,3.47-1.21l12.38-9.84v11.05h11.16V59.53Zm-28.95,52.45h-22.44v-17.85h40.23v3.71l-17.79,14.14Z"/><polygon class="cls-2" points="248.12 111.97 196.73 111.97 196.73 53.95 185.57 53.95 185.57 123.16 248.12 123.13 248.12 111.97"/></g><path class="cls-1" d="M82.36,16.67C42.75,16.67,10.64,48.78,10.64,88.39s32.11,71.72,71.72,71.72,71.72-32.11,71.72-71.72S121.97,16.67,82.36,16.67Zm-20.18,36.76h40.37l5.55,9.62H56.62l5.55-9.62Zm40.74,34.96l-10.26,17.77h-20.59l-10.26-17.77,10.28-17.8h20.56l10.28,17.8Zm-61.83,30.65l-17.7-30.65,17.71-30.67,4.77,8.26-12.94,22.41,12.93,22.39-4.77,8.26Zm.9-30.65l10.28-17.8h11.11l-10.28,17.8,10.26,17.77h-11.11l-10.26-17.77Zm60.55,34.96H62.18l-5.57-9.65h11.11l.02,.03h29.26l.02-.03h11.11l-5.57,9.65Zm-1.19-17.19l10.26-17.77-10.28-17.8h11.11l10.28,17.8-10.26,17.77h-11.11Zm22.27,12.88l-4.77-8.26,12.93-22.39-12.94-22.41,4.77-8.26,17.71,30.67-17.7,30.65Z"/></svg>