<?xml version="1.0" encoding="UTF-8"?><svg id="Layer_1" xmlns="http://www.w3.org/2000/svg" viewBox="0 0 432 432"><defs><style>.cls-1{fill:#ff2a00;}</style></defs><path class="cls-1" d="M216,76.98c-76.78,0-139.02,62.24-139.02,139.02s62.24,139.02,139.02,139.02,139.02-62.24,139.02-139.02-62.24-139.02-139.02-139.02Zm-39.13,71.25h78.25l10.77,18.65h-99.78l10.77-18.65Zm78.97,67.77l-19.89,34.45h-39.91l-19.89-34.45,19.92-34.51h39.85l19.92,34.51Zm-119.85,59.42l-34.3-59.42,34.32-59.44,9.24,16.01-25.08,43.43,25.06,43.41-9.24,16.01Zm1.75-59.42l19.92-34.51h21.54l-19.92,34.51,19.89,34.45h-21.54l-19.89-34.45Zm117.37,67.77h-78.25l-10.8-18.71h21.54l.03,.06h56.71l.03-.06h21.54l-10.8,18.71Zm-2.3-33.31l19.89-34.45-19.92-34.51h21.54l19.92,34.51-19.89,34.45h-21.54Zm43.18,24.97l-9.24-16.01,25.06-43.41-25.08-43.43,9.24-16.01,34.32,59.44-34.3,59.42Z"/></svg>